<svg viewBox="0 0 23 23" fill="none" xmlns="http://www.w3.org/2000/svg">
<g clip-path="url(#clip0)">
<path d="M9.19711 13.2585L4.60056 13.2584C4.46935 13.2584 4.3459 13.3099 4.25267 13.4031C4.15933 13.4964 4.10801 13.6199 4.10795 13.751L4.10801 14.1684C4.10795 14.2995 4.15933 14.4231 4.25262 14.5164C4.34585 14.6096 4.4724 14.6639 4.60346 14.6639L7.28794 14.6668L4.09878 17.856C3.90672 18.048 3.90532 18.3501 4.09743 18.5423L4.3925 18.8373C4.58461 19.0294 4.90187 19.0432 5.09393 18.8511L8.2983 15.6468L8.29359 18.3539C8.29365 18.4851 8.34264 18.6063 8.43593 18.6996C8.52911 18.7928 8.65158 18.843 8.78268 18.843L9.19939 18.8424C9.3306 18.8424 9.45374 18.7907 9.54708 18.6974C9.64031 18.6042 9.69153 18.4805 9.69153 18.3493L9.69153 13.7528C9.69148 13.6212 9.63979 13.4972 9.54614 13.4041C9.45265 13.3102 9.32863 13.2584 9.19711 13.2585Z" fill="#2E538E"/>
</g>
<g clip-path="url(#clip1)">
<path d="M13.5304 9.69146L18.127 9.69152C18.2582 9.69152 18.3816 9.64009 18.4749 9.54686C18.5682 9.45352 18.6195 9.33007 18.6196 9.19891L18.6195 8.78153C18.6196 8.65048 18.5682 8.52687 18.4749 8.43359C18.3817 8.34035 18.2551 8.28603 18.1241 8.28608L15.4396 8.28313L18.6288 5.09396C18.8208 4.90191 18.8222 4.5998 18.6301 4.4077L18.335 4.11263C18.1429 3.92052 17.8257 3.90676 17.6336 4.09881L14.4292 7.30319L14.4339 4.59605C14.4339 4.46489 14.3849 4.34366 14.2916 4.25038C14.1984 4.1572 14.076 4.10696 13.9449 4.10696L13.5281 4.10758C13.3969 4.10758 13.2738 4.15921 13.1805 4.25255C13.0872 4.34578 13.036 4.46944 13.036 4.60065L13.036 9.19715C13.0361 9.32872 13.0878 9.45274 13.1814 9.54587C13.2749 9.63977 13.3989 9.69157 13.5304 9.69146Z" fill="#2E538E"/>
</g>
<defs>
<clipPath id="clip0">
<rect width="9" height="9" fill="white" transform="translate(0 16.5859) rotate(-45)"/>
</clipPath>
<clipPath id="clip1">
<rect width="9" height="9" fill="white" transform="translate(22.7275 6.36401) rotate(135)"/>
</clipPath>
</defs>
</svg>
