<svg viewBox="0 0 21 22" fill="none" xmlns="http://www.w3.org/2000/svg">
<g clip-path="url(#clip0)">
<path d="M16.9754 3.89448L12.3789 3.89442C12.2477 3.89442 12.1242 3.94585 12.031 4.03908C11.9376 4.13242 11.8863 4.25587 11.8863 4.38702L11.8863 4.8044C11.8863 4.93546 11.9377 5.05906 12.0309 5.15235C12.1242 5.24558 12.2507 5.29991 12.3818 5.29986L15.0663 5.30281L11.8771 8.49197C11.685 8.68403 11.6836 8.98613 11.8758 9.17824L12.1708 9.47331C12.3629 9.66542 12.6802 9.67918 12.8722 9.48712L16.0766 6.28275L16.0719 8.98989C16.072 9.12105 16.121 9.24227 16.2143 9.33556C16.3074 9.42874 16.4299 9.47898 16.561 9.47898L16.9777 9.47836C17.1089 9.47836 17.2321 9.42673 17.3254 9.33339C17.4186 9.24015 17.4699 9.1165 17.4699 8.98529L17.4698 4.38879C17.4698 4.25722 17.4181 4.1332 17.3245 4.04007C17.231 3.94616 17.107 3.89437 16.9754 3.89448Z" fill="#2E538E"/>
</g>
<g clip-path="url(#clip1)">
<path d="M3.53092 18.3274L8.12747 18.3275C8.25868 18.3275 8.38213 18.2761 8.47536 18.1828C8.5687 18.0895 8.62002 17.9661 8.62007 17.8349L8.62002 17.4175C8.62007 17.2865 8.5687 17.1629 8.47541 17.0696C8.38218 16.9763 8.25562 16.922 8.12457 16.9221L5.44009 16.9191L8.62925 13.7299C8.82131 13.5379 8.8227 13.2358 8.6306 13.0437L8.33553 12.7486C8.14342 12.5565 7.82616 12.5427 7.6341 12.7348L4.42973 15.9392L4.43443 13.232C4.43438 13.1009 4.38538 12.9796 4.2921 12.8864C4.19892 12.7932 4.07645 12.7429 3.94534 12.7429L3.52864 12.7436C3.39743 12.7436 3.27429 12.7952 3.18095 12.8885C3.08772 12.9818 3.0365 13.1054 3.0365 13.2366L3.0365 17.8331C3.03655 17.9647 3.08824 18.0887 3.18189 18.1819C3.27538 18.2758 3.3994 18.3276 3.53092 18.3274Z" fill="#2E538E"/>
</g>
<defs>
<clipPath id="clip0">
<rect width="9" height="9" fill="white" transform="translate(7.77832 7.22192) rotate(-45)"/>
</clipPath>
<clipPath id="clip1">
<rect width="9" height="9" fill="white" transform="translate(12.728 15) rotate(135)"/>
</clipPath>
</defs>
</svg>
