<svg viewBox="0 0 10 11" fill="none" xmlns="http://www.w3.org/2000/svg">
<g clip-path="url(#clip0)">
<path d="M9.48129 9.06486L1.44599 0.646922C1.17972 0.367976 0.748015 0.367976 0.481749 0.646922C0.215482 0.925868 0.215482 1.37813 0.481749 1.65707L8.51705 10.075C8.78332 10.354 9.21502 10.354 9.48129 10.075C9.74756 9.79607 9.74756 9.3438 9.48129 9.06486Z" fill="#2E538E"/>
<path d="M8.53598 0.428059L0.500673 8.846C0.234406 9.12494 0.234406 9.5772 0.500673 9.85615C0.76694 10.1351 1.19864 10.1351 1.46491 9.85615L9.50022 1.43821C9.76648 1.15927 9.76648 0.707005 9.50022 0.428059C9.23395 0.149113 8.80225 0.149113 8.53598 0.428059Z" fill="#2E538E"/>
</g>
<defs>
<clipPath id="clip0">
<rect width="10" height="10" fill="white" transform="translate(0 0.14209)"/>
</clipPath>
</defs>
</svg>
